<?xml version="1.0" encoding="UTF-8"?>
<svg width="888px" height="200px" viewBox="0 0 888 200" version="1.1" xmlns="http://www.w3.org/2000/svg" xmlns:xlink="http://www.w3.org/1999/xlink">
    <!-- Generator: Sketch 48.2 (47327) - http://www.bohemiancoding.com/sketch -->
    <title>awesome-ui-banner</title>
    <desc>Created with Sketch.</desc>
    <defs>
        <linearGradient x1="0%" y1="0%" x2="101.999998%" y2="100.999999%" id="linearGradient-1">
            <stop stop-color="#3023AE" offset="0%"></stop>
            <stop stop-color="#3B008D" offset="100%"></stop>
        </linearGradient>
    </defs>
    <g id="Page-1" stroke="none" stroke-width="1" fill="none" fill-rule="evenodd">
        <g id="awesome-ui-banner">
            <rect id="Rectangle-2" fill="url(#linearGradient-1)" x="0" y="0" width="888" height="200"></rect>
            <text id="UI" font-family="BPreplay-Bold, BPreplay" font-size="168" font-weight="bold" letter-spacing="13" fill="#FFFFFF">
                <tspan x="522.357028" y="164.310021">U</tspan>
                <tspan x="650.437028" y="164.310021">I</tspan>
            </text>
            <path d="M475.025,90.0333333 L405.275,26.0465021 L395.4635,36.7419753 L453.5885,90.0333333 L224.483,90.0333333 L282.608,36.6954733 L272.7965,26 L203.0465,90.0333333 L203,90.0333333 L203,132.2107 C203,151.276543 221.3675,166.80823 243.92,166.80823 L286.9325,166.80823 C309.485,166.80823 327.8525,151.276543 327.8525,132.2107 L327.8525,104.495473 L350.1725,104.495473 L350.1725,132.2107 C350.1725,151.276543 368.54,166.80823 391.0925,166.80823 L434.105,166.80823 C456.6575,166.80823 475.025,151.276543 475.025,132.2107 L475.025,90.0333333 Z" id="Shape" fill="#FC60A8"></path>
        </g>
    </g>
</svg>