<?xml version="1.0" encoding="UTF-8"?>
<svg width="888px" height="200px" viewBox="0 0 888 200" version="1.1" xmlns="http://www.w3.org/2000/svg" xmlns:xlink="http://www.w3.org/1999/xlink">
    <!-- Generator: Sketch 48.2 (47327) - http://www.bohemiancoding.com/sketch -->
    <title>awesome-ui-banner</title>
    <desc>Created with Sketch.</desc>
    <defs>
        <linearGradient x1="0%" y1="0%" x2="101.999998%" y2="100.999999%" id="linearGradient-1">
            <stop stop-color="#3023AE" offset="0%"></stop>
            <stop stop-color="#3B008D" offset="100%"></stop>
        </linearGradient>
    </defs>
    <g id="Page-1" stroke="none" stroke-width="1" fill="none" fill-rule="evenodd">
        <g id="awesome-ui-banner">
            <rect id="Rectangle-2" fill="url(#linearGradient-1)" x="0" y="0" width="888" height="200"></rect>
            <path d="M525.213028,112.230021 L525.213028,48.0540207 C525.213028,38.1420207 529.917028,33.6060207 539.325028,33.6060207 C548.733028,33.6060207 553.269028,38.1420207 553.269028,48.0540207 L553.269028,111.054021 C553.269028,131.886021 564.861028,137.934021 577.965028,137.934021 C590.901028,137.934021 600.645028,132.222021 600.645028,111.054021 L600.645028,48.0540207 C600.645028,38.1420207 605.349028,33.6060207 614.757028,33.6060207 C624.165028,33.6060207 628.869028,38.1420207 628.869028,48.0540207 L628.869028,112.230021 C628.869028,152.382021 604.509028,166.158021 576.453028,166.158021 C548.061028,166.158021 525.213028,152.214021 525.213028,112.230021 Z M650.605028,150.702021 L650.605028,47.0460207 C650.605028,37.8060207 655.141028,33.4380207 664.045028,33.4380207 C673.117028,33.4380207 677.653028,37.8060207 677.653028,47.0460207 L677.653028,150.702021 C677.653028,159.942021 673.117028,164.310021 664.045028,164.310021 C655.141028,164.310021 650.605028,159.942021 650.605028,150.702021 Z" id="UI" fill="#FFFFFF"></path>
            <path d="M475.025,90.0333333 L405.275,26.0465021 L395.4635,36.7419753 L453.5885,90.0333333 L224.483,90.0333333 L282.608,36.6954733 L272.7965,26 L203.0465,90.0333333 L203,90.0333333 L203,132.2107 C203,151.276543 221.3675,166.80823 243.92,166.80823 L286.9325,166.80823 C309.485,166.80823 327.8525,151.276543 327.8525,132.2107 L327.8525,104.495473 L350.1725,104.495473 L350.1725,132.2107 C350.1725,151.276543 368.54,166.80823 391.0925,166.80823 L434.105,166.80823 C456.6575,166.80823 475.025,151.276543 475.025,132.2107 L475.025,90.0333333 Z" id="Shape" fill="#FC60A8"></path>
        </g>
    </g>
</svg>