<svg width="888" height="240" xmlns="http://www.w3.org/2000/svg"><defs><linearGradient x1="0%" y1="0%" x2="102%" y2="101%" id="a"><stop stop-color="#3023AE" offset="0%"/><stop stop-color="#3B008D" offset="100%"/></linearGradient></defs><g fill="none" fill-rule="evenodd"><rect fill="url(#a)" fill-rule="nonzero" width="888" height="240" rx="4"/><path d="M331.3 76.9c0-8.2 7.2-10 14.7-10h17c27.1.9 50 16.3 50 46 0 37.8-21.9 51.8-54.7 52.1-5.8 0-12.8.1-19.2-.4-4.4-.3-7.6-4-7.6-9.1l.3-34.7-.5-44zm29.1 4.4c-2 0-9.5 0-12.8.3v65.5c0 3.5 2.3 3.4 9.7 3.4 23.3 0 39.9-9.1 39.9-36 0-23.2-17.5-33.2-36.8-33.2zm75.3 54.9c.6 8.6 7.8 15.8 17.6 15.8a28 28 0 0 0 14-3.8c1.7-1 3.4-2 5.6-2 3.4 0 6.6 3.7 6.6 7.6 0 2.7-1.7 4.9-4.3 6.6a40.1 40.1 0 0 1-23.2 5.8c-17.8 0-32-14.3-32.2-31.7 0-20.2 14.4-36.5 33-36.5 17 0 29.2 13.3 29.2 26.5 0 7.5-1.2 11.3-11.3 11.4-8 .3-17.8.2-35 .3zm17.5-25.3c-9.7 0-16.5 7.6-17.3 15.2 7.5 0 23.3-.1 29.4-.6 1-.1 1.7-.5 1.7-1.3 0-7.9-6.6-13.3-13.8-13.3zm64.3-12.7a48 48 0 0 1 19.3 3.3c2.5 1.1 4.5 2.7 4.5 5.6 0 4-1.9 6.8-6.2 6.8-4.2 0-9.2-3.3-17.4-3.3-6.7 0-12.3 3.1-12.3 8 0 5.4 6.5 5.8 13.7 6.8 13.8 1.9 24.3 6.2 24.3 19.4 0 13.6-10.6 21.4-27.3 21.4-12.7 0-25.7-4.4-25.7-9.4 0-4 1.6-7.8 6.2-7.8 5.4 0 10.8 4.2 21 4.2 6.3 0 11.4-2.7 11.4-8 0-5.4-5-6.8-14-8.1-11.5-1.6-24-4.6-24-17.6 0-12.7 13-21.3 26.5-21.3zm38.2 7.5c.3-5.4 4.1-7.2 7.6-7.2 4.7 0 8.2 1.7 8.2 8.8v50.6c.1 5.4-2.9 7.8-8 7.8-4.5 0-7.8-2.1-7.8-6.7v-53.3zm7.3-24.4c-6 0-10-4.7-9.2-10.8.9-5.7 5.8-8.5 10.4-8.5 6.4 0 9.8 4.4 9.8 9.8 0 6.7-5 9.5-11 9.5zm52.6 102.4a19 19 0 0 0 19.4-19.4v-8.5c-4 6-11.4 10.2-20 10.2-18.7 0-31.4-15.3-31.4-32.5 0-20 14-35.3 32.8-35.3 8 0 15 4 19.3 10l.2-4.4c.4-3 3.3-5 7.3-5 4.2 0 7.3 2.7 7.3 6.9l-.2 44.9.2 14.1c.3 19.7-14.8 34-34.8 34-7.8 0-14.5-1.2-20.3-4-3.6-2-5.5-4-5.5-7.7 0-3.9 3-7.7 7-7.7 2 0 4 1.1 6.4 2.1a37 37 0 0 0 12.3 2.3zM599.4 133c0 11.4 8 18.9 17.7 18.9 9.5 0 18.3-6.8 18.3-19.7 0-13.9-8.3-20.2-17.5-20.3-10.6 0-18.5 8.5-18.5 21.1zm66.7-12.6l-.2-12.7c-.1-6 2-9.2 8.1-9.2 4.9 0 6.6 2.3 7 7l.4 5c3.3-7.9 12.5-12.5 21.4-12.5 16 0 25 10.6 25 28.4 0 6-.2 9-.2 18.6v12.4c0 5.7-3 8-8.5 8-4.2 0-7.5-2.1-7.5-6.9 0-8.2.4-18.6.4-27.6-.1-9.8-2.1-19-13-19-15-.2-17.5 11-17.5 24.4l.1 22.7c0 5.1-4.3 6.7-7.9 6.7-4.4 0-7.9-1.6-7.9-6.9 0-8.6.4-17.3.3-38.4z" fill="#FFF" opacity=".9"/><path d="M260 105.8l-.3-31.5c0-5.6 3.8-8.7 9.4-8.7 5.1 0 8.7 3 8.7 8v46.8l-.1 10.9.1 26.3c.2 6-3.4 9-9 9s-9.2-3-9.2-8.5a345 345 0 0 1 .1-12.8l.3-39.5zm-99 19a4093.1 4093.1 0 0 1 0-49.4c0-5.8 3.2-8.9 8.7-8.9 6.6 0 9.4 2.8 9.4 9.2a1235.5 1235.5 0 0 0-.2 38.8v10.2c0 17 7.7 25.3 22.2 25.3 12.7 0 21.3-10.4 21.5-25.5a644.3 644.3 0 0 0 0-31.7l-.2-18c0-5.6 3.5-8.6 9.2-8.6 6.2 0 9 3.2 9 10.2l.2 44.8c0 28.3-15.2 45.7-40.7 45.7-24.2 0-39.2-15.8-39.2-42z" stroke="#FFF" stroke-width="2" fill="#FFF"/></g></svg>